<svg width="99" height="17" viewBox="0 0 99 17" fill="none" xmlns="http://www.w3.org/2000/svg">
<path d="M12.9287 13H10.0986L8.97363 10.0732H3.82324L2.75977 13H0L5.01855 0.115234H7.76953L12.9287 13ZM8.13867 7.90234L6.36328 3.12109L4.62305 7.90234H8.13867ZM13.4297 10.3369L15.9082 9.95898C16.0137 10.4395 16.2275 10.8057 16.5498 11.0576C16.8721 11.3037 17.3232 11.4268 17.9033 11.4268C18.542 11.4268 19.0225 11.3096 19.3447 11.0752C19.5615 10.9111 19.6699 10.6914 19.6699 10.416C19.6699 10.2285 19.6113 10.0732 19.4941 9.9502C19.3711 9.83301 19.0957 9.72461 18.668 9.625C16.6758 9.18555 15.4131 8.78418 14.8799 8.4209C14.1416 7.91699 13.7725 7.2168 13.7725 6.32031C13.7725 5.51172 14.0918 4.83203 14.7305 4.28125C15.3691 3.73047 16.3594 3.45508 17.7012 3.45508C18.9785 3.45508 19.9277 3.66309 20.5488 4.0791C21.1699 4.49512 21.5977 5.11035 21.832 5.9248L19.5029 6.35547C19.4033 5.99219 19.2129 5.71387 18.9316 5.52051C18.6562 5.32715 18.2607 5.23047 17.7451 5.23047C17.0947 5.23047 16.6289 5.32129 16.3477 5.50293C16.1602 5.63184 16.0664 5.79883 16.0664 6.00391C16.0664 6.17969 16.1484 6.3291 16.3125 6.45215C16.5352 6.61621 17.3027 6.84766 18.6152 7.14648C19.9336 7.44531 20.8535 7.81152 21.375 8.24512C21.8906 8.68457 22.1484 9.29688 22.1484 10.082C22.1484 10.9375 21.791 11.6729 21.0762 12.2881C20.3613 12.9033 19.3037 13.2109 17.9033 13.2109C16.6318 13.2109 15.624 12.9531 14.8799 12.4375C14.1416 11.9219 13.6582 11.2217 13.4297 10.3369ZM24.249 3.66602H26.5518V5.03711C26.8506 4.56836 27.2549 4.1875 27.7646 3.89453C28.2744 3.60156 28.8398 3.45508 29.4609 3.45508C30.5449 3.45508 31.4648 3.87988 32.2207 4.72949C32.9766 5.5791 33.3545 6.7627 33.3545 8.28027C33.3545 9.83887 32.9736 11.0518 32.2119 11.9189C31.4502 12.7803 30.5273 13.2109 29.4434 13.2109C28.9277 13.2109 28.459 13.1084 28.0371 12.9033C27.6211 12.6982 27.1816 12.3467 26.7188 11.8486V16.5508H24.249V3.66602ZM26.6924 8.1748C26.6924 9.22363 26.9004 10 27.3164 10.5039C27.7324 11.002 28.2393 11.251 28.8369 11.251C29.4111 11.251 29.8887 11.0225 30.2695 10.5654C30.6504 10.1025 30.8408 9.34668 30.8408 8.29785C30.8408 7.31934 30.6445 6.59277 30.252 6.11816C29.8594 5.64355 29.373 5.40625 28.793 5.40625C28.1895 5.40625 27.6885 5.64062 27.29 6.10938C26.8916 6.57227 26.6924 7.26074 26.6924 8.1748ZM35.3232 2.40039V0.115234H37.793V2.40039H35.3232ZM35.3232 13V3.66602H37.793V13H35.3232ZM42.6973 13H40.2275V3.66602H42.5215V4.99316C42.9141 4.36621 43.2656 3.95313 43.5762 3.75391C43.8926 3.55469 44.25 3.45508 44.6484 3.45508C45.2109 3.45508 45.7529 3.61035 46.2744 3.9209L45.5098 6.07422C45.0938 5.80469 44.707 5.66992 44.3496 5.66992C44.0039 5.66992 43.7109 5.7666 43.4707 5.95996C43.2305 6.14746 43.04 6.49023 42.8994 6.98828C42.7646 7.48633 42.6973 8.5293 42.6973 10.1172V13ZM49.1924 6.51367L46.9512 6.10938C47.2031 5.20703 47.6367 4.53906 48.252 4.10547C48.8672 3.67188 49.7812 3.45508 50.9941 3.45508C52.0957 3.45508 52.916 3.58691 53.4551 3.85059C53.9941 4.1084 54.3721 4.43945 54.5889 4.84375C54.8115 5.24219 54.9229 5.97754 54.9229 7.0498L54.8965 9.93262C54.8965 10.7529 54.9346 11.3594 55.0107 11.752C55.0928 12.1387 55.2422 12.5547 55.459 13H53.0156C52.9512 12.8359 52.8721 12.5928 52.7783 12.2705C52.7373 12.124 52.708 12.0273 52.6904 11.9805C52.2686 12.3906 51.8174 12.6982 51.3369 12.9033C50.8564 13.1084 50.3438 13.2109 49.7988 13.2109C48.8379 13.2109 48.0791 12.9502 47.5225 12.4287C46.9717 11.9072 46.6963 11.248 46.6963 10.4512C46.6963 9.92383 46.8223 9.45508 47.0742 9.04492C47.3262 8.62891 47.6777 8.3125 48.1289 8.0957C48.5859 7.87305 49.2422 7.67969 50.0977 7.51562C51.252 7.29883 52.0518 7.09668 52.4971 6.90918V6.66309C52.4971 6.18848 52.3799 5.85156 52.1455 5.65234C51.9111 5.44727 51.4688 5.34473 50.8184 5.34473C50.3789 5.34473 50.0361 5.43262 49.79 5.6084C49.5439 5.77832 49.3447 6.08008 49.1924 6.51367ZM52.4971 8.51758C52.1807 8.62305 51.6797 8.74902 50.9941 8.89551C50.3086 9.04199 49.8604 9.18555 49.6494 9.32617C49.3271 9.55469 49.166 9.84473 49.166 10.1963C49.166 10.542 49.2949 10.8408 49.5527 11.0928C49.8105 11.3447 50.1387 11.4707 50.5371 11.4707C50.9824 11.4707 51.4072 11.3242 51.8115 11.0312C52.1104 10.8086 52.3066 10.5361 52.4004 10.2139C52.4648 10.0029 52.4971 9.60156 52.4971 9.00977V8.51758ZM61.6465 3.66602V5.63477H59.959V9.39648C59.959 10.1582 59.9736 10.6035 60.0029 10.7324C60.0381 10.8555 60.1113 10.958 60.2227 11.04C60.3398 11.1221 60.4805 11.1631 60.6445 11.1631C60.873 11.1631 61.2041 11.084 61.6377 10.9258L61.8486 12.8418C61.2744 13.0879 60.624 13.2109 59.8975 13.2109C59.4521 13.2109 59.0508 13.1377 58.6934 12.9912C58.3359 12.8389 58.0723 12.6455 57.9023 12.4111C57.7383 12.1709 57.624 11.8486 57.5596 11.4443C57.5068 11.1572 57.4805 10.5771 57.4805 9.7041V5.63477H56.3467V3.66602H57.4805V1.81152L59.959 0.370117V3.66602H61.6465ZM63.3604 2.40039V0.115234H65.8301V2.40039H63.3604ZM63.3604 13V3.66602H65.8301V13H63.3604ZM67.7988 8.20117C67.7988 7.38086 68.001 6.58691 68.4053 5.81934C68.8096 5.05176 69.3809 4.46582 70.1191 4.06152C70.8633 3.65723 71.6924 3.45508 72.6064 3.45508C74.0186 3.45508 75.1758 3.91504 76.0781 4.83496C76.9805 5.74902 77.4316 6.90625 77.4316 8.30664C77.4316 9.71875 76.9746 10.8906 76.0605 11.8223C75.1523 12.748 74.0068 13.2109 72.624 13.2109C71.7686 13.2109 70.9512 13.0176 70.1719 12.6309C69.3984 12.2441 68.8096 11.6787 68.4053 10.9346C68.001 10.1846 67.7988 9.27344 67.7988 8.20117ZM70.3301 8.33301C70.3301 9.25879 70.5498 9.96777 70.9893 10.46C71.4287 10.9521 71.9707 11.1982 72.6152 11.1982C73.2598 11.1982 73.7988 10.9521 74.2324 10.46C74.6719 9.96777 74.8916 9.25293 74.8916 8.31543C74.8916 7.40137 74.6719 6.69824 74.2324 6.20605C73.7988 5.71387 73.2598 5.46777 72.6152 5.46777C71.9707 5.46777 71.4287 5.71387 70.9893 6.20605C70.5498 6.69824 70.3301 7.40723 70.3301 8.33301ZM87.8643 13H85.3945V8.23633C85.3945 7.22852 85.3418 6.57812 85.2363 6.28516C85.1309 5.98633 84.958 5.75488 84.7178 5.59082C84.4834 5.42676 84.1992 5.34473 83.8652 5.34473C83.4375 5.34473 83.0537 5.46191 82.7139 5.69629C82.374 5.93066 82.1396 6.24121 82.0107 6.62793C81.8877 7.01465 81.8262 7.72949 81.8262 8.77246V13H79.3564V3.66602H81.6504V5.03711C82.4648 3.98242 83.4902 3.45508 84.7266 3.45508C85.2715 3.45508 85.7695 3.55469 86.2207 3.75391C86.6719 3.94727 87.0117 4.19629 87.2402 4.50098C87.4746 4.80566 87.6357 5.15137 87.7236 5.53809C87.8174 5.9248 87.8643 6.47852 87.8643 7.19922V13ZM89.5078 10.3369L91.9863 9.95898C92.0918 10.4395 92.3057 10.8057 92.6279 11.0576C92.9502 11.3037 93.4014 11.4268 93.9814 11.4268C94.6201 11.4268 95.1006 11.3096 95.4229 11.0752C95.6396 10.9111 95.748 10.6914 95.748 10.416C95.748 10.2285 95.6895 10.0732 95.5723 9.9502C95.4492 9.83301 95.1738 9.72461 94.7461 9.625C92.7539 9.18555 91.4912 8.78418 90.958 8.4209C90.2197 7.91699 89.8506 7.2168 89.8506 6.32031C89.8506 5.51172 90.1699 4.83203 90.8086 4.28125C91.4473 3.73047 92.4375 3.45508 93.7793 3.45508C95.0566 3.45508 96.0059 3.66309 96.627 4.0791C97.248 4.49512 97.6758 5.11035 97.9102 5.9248L95.5811 6.35547C95.4814 5.99219 95.291 5.71387 95.0098 5.52051C94.7344 5.32715 94.3389 5.23047 93.8232 5.23047C93.1729 5.23047 92.707 5.32129 92.4258 5.50293C92.2383 5.63184 92.1445 5.79883 92.1445 6.00391C92.1445 6.17969 92.2266 6.3291 92.3906 6.45215C92.6133 6.61621 93.3809 6.84766 94.6934 7.14648C96.0117 7.44531 96.9316 7.81152 97.4531 8.24512C97.9688 8.68457 98.2266 9.29688 98.2266 10.082C98.2266 10.9375 97.8691 11.6729 97.1543 12.2881C96.4395 12.9033 95.3818 13.2109 93.9814 13.2109C92.71 13.2109 91.7021 12.9531 90.958 12.4375C90.2197 11.9219 89.7363 11.2217 89.5078 10.3369Z" fill="black"/>
</svg>
