<svg width="460" height="18" viewBox="0 0 460 18" fill="none" xmlns="http://www.w3.org/2000/svg">
<path d="M2.62988 6.33594H0.160156V4.56934C0.160156 3.85449 0.22168 3.29199 0.344727 2.88184C0.473633 2.46582 0.708008 2.09375 1.04785 1.76562C1.3877 1.4375 1.82129 1.17969 2.34863 0.992188L2.83203 2.01172C2.33984 2.17578 1.98535 2.4043 1.76855 2.69727C1.55762 2.99023 1.44629 3.37988 1.43457 3.86621H2.62988V6.33594ZM6.75195 6.33594H4.28223V4.56934C4.28223 3.84863 4.34375 3.2832 4.4668 2.87305C4.5957 2.46289 4.83008 2.09375 5.16992 1.76562C5.51562 1.4375 5.94922 1.17969 6.4707 0.992188L6.9541 2.01172C6.46191 2.17578 6.10742 2.4043 5.89062 2.69727C5.67969 2.99023 5.56836 3.37988 5.55664 3.86621H6.75195V6.33594ZM9.34473 14V1.11523H11.9463V6.83691L17.2021 1.11523H20.7002L15.8486 6.13379L20.9639 14H17.5977L14.0557 7.95312L11.9463 10.1064V14H9.34473ZM30.79 14H28.3203V9.23633C28.3203 8.22852 28.2676 7.57812 28.1621 7.28516C28.0566 6.98633 27.8838 6.75488 27.6436 6.59082C27.4092 6.42676 27.125 6.34473 26.791 6.34473C26.3633 6.34473 25.9795 6.46191 25.6396 6.69629C25.2998 6.93066 25.0654 7.24121 24.9365 7.62793C24.8135 8.01465 24.752 8.72949 24.752 9.77246V14H22.2822V4.66602H24.5762V6.03711C25.3906 4.98242 26.416 4.45508 27.6523 4.45508C28.1973 4.45508 28.6953 4.55469 29.1465 4.75391C29.5977 4.94727 29.9375 5.19629 30.166 5.50098C30.4004 5.80566 30.5615 6.15137 30.6494 6.53809C30.7432 6.9248 30.79 7.47852 30.79 8.19922V14ZM32.7324 9.20117C32.7324 8.38086 32.9346 7.58691 33.3389 6.81934C33.7432 6.05176 34.3145 5.46582 35.0527 5.06152C35.7969 4.65723 36.626 4.45508 37.54 4.45508C38.9521 4.45508 40.1094 4.91504 41.0117 5.83496C41.9141 6.74902 42.3652 7.90625 42.3652 9.30664C42.3652 10.7188 41.9082 11.8906 40.9941 12.8223C40.0859 13.748 38.9404 14.2109 37.5576 14.2109C36.7021 14.2109 35.8848 14.0176 35.1055 13.6309C34.332 13.2441 33.7432 12.6787 33.3389 11.9346C32.9346 11.1846 32.7324 10.2734 32.7324 9.20117ZM35.2637 9.33301C35.2637 10.2588 35.4834 10.9678 35.9229 11.46C36.3623 11.9521 36.9043 12.1982 37.5488 12.1982C38.1934 12.1982 38.7324 11.9521 39.166 11.46C39.6055 10.9678 39.8252 10.2529 39.8252 9.31543C39.8252 8.40137 39.6055 7.69824 39.166 7.20605C38.7324 6.71387 38.1934 6.46777 37.5488 6.46777C36.9043 6.46777 36.3623 6.71387 35.9229 7.20605C35.4834 7.69824 35.2637 8.40723 35.2637 9.33301ZM46.0479 14L43.0947 4.66602H45.4941L47.2432 10.7832L48.8516 4.66602H51.2334L52.7891 10.7832L54.5732 4.66602H57.0078L54.0107 14H51.6377L50.0293 7.99707L48.4473 14H46.0479ZM58.3174 3.40039V1.11523H60.7871V3.40039H58.3174ZM58.3174 14V4.66602H60.7871V14H58.3174ZM71.8174 14H69.3477V9.23633C69.3477 8.22852 69.2949 7.57812 69.1895 7.28516C69.084 6.98633 68.9111 6.75488 68.6709 6.59082C68.4365 6.42676 68.1523 6.34473 67.8184 6.34473C67.3906 6.34473 67.0068 6.46191 66.667 6.69629C66.3271 6.93066 66.0928 7.24121 65.9639 7.62793C65.8408 8.01465 65.7793 8.72949 65.7793 9.77246V14H63.3096V4.66602H65.6035V6.03711C66.418 4.98242 67.4434 4.45508 68.6797 4.45508C69.2246 4.45508 69.7227 4.55469 70.1738 4.75391C70.625 4.94727 70.9648 5.19629 71.1934 5.50098C71.4277 5.80566 71.5889 6.15137 71.6768 6.53809C71.7705 6.9248 71.8174 7.47852 71.8174 8.19922V14ZM74.1025 14.6152L76.9238 14.958C76.9707 15.2861 77.0791 15.5117 77.249 15.6348C77.4834 15.8105 77.8525 15.8984 78.3564 15.8984C79.001 15.8984 79.4844 15.8018 79.8066 15.6084C80.0234 15.4795 80.1875 15.2715 80.2988 14.9844C80.375 14.7793 80.4131 14.4014 80.4131 13.8506V12.4883C79.6748 13.4961 78.7432 14 77.6182 14C76.3643 14 75.3711 13.4697 74.6387 12.4092C74.0645 11.5713 73.7773 10.5283 73.7773 9.28027C73.7773 7.71582 74.1523 6.52051 74.9023 5.69434C75.6582 4.86816 76.5957 4.45508 77.7148 4.45508C78.8691 4.45508 79.8213 4.96191 80.5713 5.97559V4.66602H82.8828V13.042C82.8828 14.1436 82.792 14.9668 82.6104 15.5117C82.4287 16.0566 82.1738 16.4844 81.8457 16.7949C81.5176 17.1055 81.0781 17.3486 80.5273 17.5244C79.9824 17.7002 79.291 17.7881 78.4531 17.7881C76.8711 17.7881 75.749 17.5156 75.0869 16.9707C74.4248 16.4316 74.0938 15.7461 74.0938 14.9141C74.0938 14.832 74.0967 14.7324 74.1025 14.6152ZM76.3086 9.13965C76.3086 10.1299 76.499 10.8564 76.8799 11.3193C77.2666 11.7764 77.7412 12.0049 78.3037 12.0049C78.9072 12.0049 79.417 11.7705 79.833 11.3018C80.249 10.8271 80.457 10.127 80.457 9.20117C80.457 8.23438 80.2578 7.5166 79.8594 7.04785C79.4609 6.5791 78.957 6.34473 78.3477 6.34473C77.7559 6.34473 77.2666 6.57617 76.8799 7.03906C76.499 7.49609 76.3086 8.19629 76.3086 9.13965ZM92.085 14L89.1318 4.66602H91.5312L93.2803 10.7832L94.8887 4.66602H97.2705L98.8262 10.7832L100.61 4.66602H103.045L100.048 14H97.6748L96.0664 7.99707L94.4844 14H92.085ZM109.76 11.0293L112.221 11.4424C111.904 12.3447 111.403 13.0332 110.718 13.5078C110.038 13.9766 109.186 14.2109 108.16 14.2109C106.537 14.2109 105.336 13.6807 104.557 12.6201C103.941 11.7705 103.634 10.6982 103.634 9.40332C103.634 7.85645 104.038 6.64648 104.847 5.77344C105.655 4.89453 106.678 4.45508 107.914 4.45508C109.303 4.45508 110.398 4.91504 111.201 5.83496C112.004 6.74902 112.388 8.15234 112.353 10.0449H106.165C106.183 10.7773 106.382 11.3486 106.763 11.7588C107.144 12.1631 107.618 12.3652 108.187 12.3652C108.573 12.3652 108.898 12.2598 109.162 12.0488C109.426 11.8379 109.625 11.498 109.76 11.0293ZM109.9 8.5332C109.883 7.81836 109.698 7.27637 109.347 6.90723C108.995 6.53223 108.567 6.34473 108.063 6.34473C107.524 6.34473 107.079 6.54102 106.728 6.93359C106.376 7.32617 106.203 7.85938 106.209 8.5332H109.9ZM121.845 1.11523V5.85254C122.642 4.9209 123.594 4.45508 124.701 4.45508C125.27 4.45508 125.782 4.56055 126.239 4.77148C126.696 4.98242 127.039 5.25195 127.268 5.58008C127.502 5.9082 127.66 6.27148 127.742 6.66992C127.83 7.06836 127.874 7.68652 127.874 8.52441V14H125.404V9.06934C125.404 8.09082 125.357 7.46973 125.264 7.20605C125.17 6.94238 125.003 6.73438 124.763 6.58203C124.528 6.42383 124.232 6.34473 123.875 6.34473C123.465 6.34473 123.099 6.44434 122.776 6.64355C122.454 6.84277 122.217 7.14453 122.064 7.54883C121.918 7.94727 121.845 8.53906 121.845 9.32422V14H119.375V1.11523H121.845ZM132.233 7.51367L129.992 7.10938C130.244 6.20703 130.678 5.53906 131.293 5.10547C131.908 4.67188 132.822 4.45508 134.035 4.45508C135.137 4.45508 135.957 4.58691 136.496 4.85059C137.035 5.1084 137.413 5.43945 137.63 5.84375C137.853 6.24219 137.964 6.97754 137.964 8.0498L137.938 10.9326C137.938 11.7529 137.976 12.3594 138.052 12.752C138.134 13.1387 138.283 13.5547 138.5 14H136.057C135.992 13.8359 135.913 13.5928 135.819 13.2705C135.778 13.124 135.749 13.0273 135.731 12.9805C135.31 13.3906 134.858 13.6982 134.378 13.9033C133.897 14.1084 133.385 14.2109 132.84 14.2109C131.879 14.2109 131.12 13.9502 130.563 13.4287C130.013 12.9072 129.737 12.248 129.737 11.4512C129.737 10.9238 129.863 10.4551 130.115 10.0449C130.367 9.62891 130.719 9.3125 131.17 9.0957C131.627 8.87305 132.283 8.67969 133.139 8.51562C134.293 8.29883 135.093 8.09668 135.538 7.90918V7.66309C135.538 7.18848 135.421 6.85156 135.187 6.65234C134.952 6.44727 134.51 6.34473 133.859 6.34473C133.42 6.34473 133.077 6.43262 132.831 6.6084C132.585 6.77832 132.386 7.08008 132.233 7.51367ZM135.538 9.51758C135.222 9.62305 134.721 9.74902 134.035 9.89551C133.35 10.042 132.901 10.1855 132.69 10.3262C132.368 10.5547 132.207 10.8447 132.207 11.1963C132.207 11.542 132.336 11.8408 132.594 12.0928C132.852 12.3447 133.18 12.4707 133.578 12.4707C134.023 12.4707 134.448 12.3242 134.853 12.0312C135.151 11.8086 135.348 11.5361 135.441 11.2139C135.506 11.0029 135.538 10.6016 135.538 10.0098V9.51758ZM142.974 14L139.212 4.66602H141.805L143.562 9.42969L144.072 11.0205C144.207 10.6162 144.292 10.3496 144.327 10.2207C144.409 9.95703 144.497 9.69336 144.591 9.42969L146.366 4.66602H148.906L145.197 14H142.974ZM155.832 11.0293L158.293 11.4424C157.977 12.3447 157.476 13.0332 156.79 13.5078C156.11 13.9766 155.258 14.2109 154.232 14.2109C152.609 14.2109 151.408 13.6807 150.629 12.6201C150.014 11.7705 149.706 10.6982 149.706 9.40332C149.706 7.85645 150.11 6.64648 150.919 5.77344C151.728 4.89453 152.75 4.45508 153.986 4.45508C155.375 4.45508 156.471 4.91504 157.273 5.83496C158.076 6.74902 158.46 8.15234 158.425 10.0449H152.237C152.255 10.7773 152.454 11.3486 152.835 11.7588C153.216 12.1631 153.69 12.3652 154.259 12.3652C154.646 12.3652 154.971 12.2598 155.234 12.0488C155.498 11.8379 155.697 11.498 155.832 11.0293ZM155.973 8.5332C155.955 7.81836 155.771 7.27637 155.419 6.90723C155.067 6.53223 154.64 6.34473 154.136 6.34473C153.597 6.34473 153.151 6.54102 152.8 6.93359C152.448 7.32617 152.275 7.85938 152.281 8.5332H155.973ZM170.861 11.0293L173.322 11.4424C173.006 12.3447 172.505 13.0332 171.819 13.5078C171.14 13.9766 170.287 14.2109 169.262 14.2109C167.639 14.2109 166.438 13.6807 165.658 12.6201C165.043 11.7705 164.735 10.6982 164.735 9.40332C164.735 7.85645 165.14 6.64648 165.948 5.77344C166.757 4.89453 167.779 4.45508 169.016 4.45508C170.404 4.45508 171.5 4.91504 172.303 5.83496C173.105 6.74902 173.489 8.15234 173.454 10.0449H167.267C167.284 10.7773 167.483 11.3486 167.864 11.7588C168.245 12.1631 168.72 12.3652 169.288 12.3652C169.675 12.3652 170 12.2598 170.264 12.0488C170.527 11.8379 170.727 11.498 170.861 11.0293ZM171.002 8.5332C170.984 7.81836 170.8 7.27637 170.448 6.90723C170.097 6.53223 169.669 6.34473 169.165 6.34473C168.626 6.34473 168.181 6.54102 167.829 6.93359C167.478 7.32617 167.305 7.85938 167.311 8.5332H171.002ZM174.289 14L177.655 9.19238L174.43 4.66602H177.444L179.097 7.23242L180.837 4.66602H183.737L180.573 9.08691L184.027 14H180.995L179.097 11.1084L177.181 14H174.289ZM189.775 4.66602V6.63477H188.088V10.3965C188.088 11.1582 188.103 11.6035 188.132 11.7324C188.167 11.8555 188.24 11.958 188.352 12.04C188.469 12.1221 188.609 12.1631 188.773 12.1631C189.002 12.1631 189.333 12.084 189.767 11.9258L189.978 13.8418C189.403 14.0879 188.753 14.2109 188.026 14.2109C187.581 14.2109 187.18 14.1377 186.822 13.9912C186.465 13.8389 186.201 13.6455 186.031 13.4111C185.867 13.1709 185.753 12.8486 185.688 12.4443C185.636 12.1572 185.609 11.5771 185.609 10.7041V6.63477H184.476V4.66602H185.609V2.81152L188.088 1.37012V4.66602H189.775ZM193.854 14H191.384V4.66602H193.678V5.99316C194.07 5.36621 194.422 4.95313 194.732 4.75391C195.049 4.55469 195.406 4.45508 195.805 4.45508C196.367 4.45508 196.909 4.61035 197.431 4.9209L196.666 7.07422C196.25 6.80469 195.863 6.66992 195.506 6.66992C195.16 6.66992 194.867 6.7666 194.627 6.95996C194.387 7.14746 194.196 7.49023 194.056 7.98828C193.921 8.48633 193.854 9.5293 193.854 11.1172V14ZM200.349 7.51367L198.107 7.10938C198.359 6.20703 198.793 5.53906 199.408 5.10547C200.023 4.67188 200.938 4.45508 202.15 4.45508C203.252 4.45508 204.072 4.58691 204.611 4.85059C205.15 5.1084 205.528 5.43945 205.745 5.84375C205.968 6.24219 206.079 6.97754 206.079 8.0498L206.053 10.9326C206.053 11.7529 206.091 12.3594 206.167 12.752C206.249 13.1387 206.398 13.5547 206.615 14H204.172C204.107 13.8359 204.028 13.5928 203.935 13.2705C203.894 13.124 203.864 13.0273 203.847 12.9805C203.425 13.3906 202.974 13.6982 202.493 13.9033C202.013 14.1084 201.5 14.2109 200.955 14.2109C199.994 14.2109 199.235 13.9502 198.679 13.4287C198.128 12.9072 197.853 12.248 197.853 11.4512C197.853 10.9238 197.979 10.4551 198.23 10.0449C198.482 9.62891 198.834 9.3125 199.285 9.0957C199.742 8.87305 200.398 8.67969 201.254 8.51562C202.408 8.29883 203.208 8.09668 203.653 7.90918V7.66309C203.653 7.18848 203.536 6.85156 203.302 6.65234C203.067 6.44727 202.625 6.34473 201.975 6.34473C201.535 6.34473 201.192 6.43262 200.946 6.6084C200.7 6.77832 200.501 7.08008 200.349 7.51367ZM203.653 9.51758C203.337 9.62305 202.836 9.74902 202.15 9.89551C201.465 10.042 201.017 10.1855 200.806 10.3262C200.483 10.5547 200.322 10.8447 200.322 11.1963C200.322 11.542 200.451 11.8408 200.709 12.0928C200.967 12.3447 201.295 12.4707 201.693 12.4707C202.139 12.4707 202.563 12.3242 202.968 12.0312C203.267 11.8086 203.463 11.5361 203.557 11.2139C203.621 11.0029 203.653 10.6016 203.653 10.0098V9.51758ZM213.462 4.66602H215.765V6.03711C216.063 5.56836 216.468 5.1875 216.978 4.89453C217.487 4.60156 218.053 4.45508 218.674 4.45508C219.758 4.45508 220.678 4.87988 221.434 5.72949C222.189 6.5791 222.567 7.7627 222.567 9.28027C222.567 10.8389 222.187 12.0518 221.425 12.9189C220.663 13.7803 219.74 14.2109 218.656 14.2109C218.141 14.2109 217.672 14.1084 217.25 13.9033C216.834 13.6982 216.395 13.3467 215.932 12.8486V17.5508H213.462V4.66602ZM215.905 9.1748C215.905 10.2236 216.113 11 216.529 11.5039C216.945 12.002 217.452 12.251 218.05 12.251C218.624 12.251 219.102 12.0225 219.482 11.5654C219.863 11.1025 220.054 10.3467 220.054 9.29785C220.054 8.31934 219.857 7.59277 219.465 7.11816C219.072 6.64355 218.586 6.40625 218.006 6.40625C217.402 6.40625 216.901 6.64062 216.503 7.10938C216.104 7.57227 215.905 8.26074 215.905 9.1748ZM226.9 14H224.431V4.66602H226.725V5.99316C227.117 5.36621 227.469 4.95313 227.779 4.75391C228.096 4.55469 228.453 4.45508 228.852 4.45508C229.414 4.45508 229.956 4.61035 230.478 4.9209L229.713 7.07422C229.297 6.80469 228.91 6.66992 228.553 6.66992C228.207 6.66992 227.914 6.7666 227.674 6.95996C227.434 7.14746 227.243 7.49023 227.103 7.98828C226.968 8.48633 226.9 9.5293 226.9 11.1172V14ZM230.979 9.20117C230.979 8.38086 231.181 7.58691 231.585 6.81934C231.989 6.05176 232.561 5.46582 233.299 5.06152C234.043 4.65723 234.872 4.45508 235.786 4.45508C237.198 4.45508 238.355 4.91504 239.258 5.83496C240.16 6.74902 240.611 7.90625 240.611 9.30664C240.611 10.7188 240.154 11.8906 239.24 12.8223C238.332 13.748 237.187 14.2109 235.804 14.2109C234.948 14.2109 234.131 14.0176 233.352 13.6309C232.578 13.2441 231.989 12.6787 231.585 11.9346C231.181 11.1846 230.979 10.2734 230.979 9.20117ZM233.51 9.33301C233.51 10.2588 233.729 10.9678 234.169 11.46C234.608 11.9521 235.15 12.1982 235.795 12.1982C236.439 12.1982 236.979 11.9521 237.412 11.46C237.852 10.9678 238.071 10.2529 238.071 9.31543C238.071 8.40137 237.852 7.69824 237.412 7.20605C236.979 6.71387 236.439 6.46777 235.795 6.46777C235.15 6.46777 234.608 6.71387 234.169 7.20605C233.729 7.69824 233.51 8.40723 233.51 9.33301ZM246.834 4.66602V6.63477H245.146V10.3965C245.146 11.1582 245.161 11.6035 245.19 11.7324C245.226 11.8555 245.299 11.958 245.41 12.04C245.527 12.1221 245.668 12.1631 245.832 12.1631C246.061 12.1631 246.392 12.084 246.825 11.9258L247.036 13.8418C246.462 14.0879 245.812 14.2109 245.085 14.2109C244.64 14.2109 244.238 14.1377 243.881 13.9912C243.523 13.8389 243.26 13.6455 243.09 13.4111C242.926 13.1709 242.812 12.8486 242.747 12.4443C242.694 12.1572 242.668 11.5771 242.668 10.7041V6.63477H241.534V4.66602H242.668V2.81152L245.146 1.37012V4.66602H246.834ZM253.953 11.0293L256.414 11.4424C256.098 12.3447 255.597 13.0332 254.911 13.5078C254.231 13.9766 253.379 14.2109 252.354 14.2109C250.73 14.2109 249.529 13.6807 248.75 12.6201C248.135 11.7705 247.827 10.6982 247.827 9.40332C247.827 7.85645 248.231 6.64648 249.04 5.77344C249.849 4.89453 250.871 4.45508 252.107 4.45508C253.496 4.45508 254.592 4.91504 255.395 5.83496C256.197 6.74902 256.581 8.15234 256.546 10.0449H250.358C250.376 10.7773 250.575 11.3486 250.956 11.7588C251.337 12.1631 251.812 12.3652 252.38 12.3652C252.767 12.3652 253.092 12.2598 253.355 12.0488C253.619 11.8379 253.818 11.498 253.953 11.0293ZM254.094 8.5332C254.076 7.81836 253.892 7.27637 253.54 6.90723C253.188 6.53223 252.761 6.34473 252.257 6.34473C251.718 6.34473 251.272 6.54102 250.921 6.93359C250.569 7.32617 250.396 7.85938 250.402 8.5332H254.094ZM266.706 7.42578L264.271 7.86523C264.189 7.37891 264.002 7.0127 263.709 6.7666C263.422 6.52051 263.047 6.39746 262.584 6.39746C261.969 6.39746 261.477 6.61133 261.107 7.03906C260.744 7.46094 260.562 8.16992 260.562 9.16602C260.562 10.2734 260.747 11.0557 261.116 11.5127C261.491 11.9697 261.992 12.1982 262.619 12.1982C263.088 12.1982 263.472 12.0664 263.771 11.8027C264.069 11.5332 264.28 11.0732 264.403 10.4229L266.829 10.8359C266.577 11.9492 266.094 12.79 265.379 13.3584C264.664 13.9268 263.706 14.2109 262.505 14.2109C261.14 14.2109 260.05 13.7803 259.235 12.9189C258.427 12.0576 258.022 10.8652 258.022 9.3418C258.022 7.80078 258.43 6.60254 259.244 5.74707C260.059 4.88574 261.16 4.45508 262.549 4.45508C263.686 4.45508 264.588 4.70117 265.256 5.19336C265.93 5.67969 266.413 6.42383 266.706 7.42578ZM272.867 4.66602V6.63477H271.18V10.3965C271.18 11.1582 271.194 11.6035 271.224 11.7324C271.259 11.8555 271.332 11.958 271.443 12.04C271.561 12.1221 271.701 12.1631 271.865 12.1631C272.094 12.1631 272.425 12.084 272.858 11.9258L273.069 13.8418C272.495 14.0879 271.845 14.2109 271.118 14.2109C270.673 14.2109 270.271 14.1377 269.914 13.9912C269.557 13.8389 269.293 13.6455 269.123 13.4111C268.959 13.1709 268.845 12.8486 268.78 12.4443C268.728 12.1572 268.701 11.5771 268.701 10.7041V6.63477H267.567V4.66602H268.701V2.81152L271.18 1.37012V4.66602H272.867ZM274.581 3.40039V1.11523H277.051V3.40039H274.581ZM274.581 14V4.66602H277.051V14H274.581ZM279.02 9.20117C279.02 8.38086 279.222 7.58691 279.626 6.81934C280.03 6.05176 280.602 5.46582 281.34 5.06152C282.084 4.65723 282.913 4.45508 283.827 4.45508C285.239 4.45508 286.396 4.91504 287.299 5.83496C288.201 6.74902 288.652 7.90625 288.652 9.30664C288.652 10.7188 288.195 11.8906 287.281 12.8223C286.373 13.748 285.228 14.2109 283.845 14.2109C282.989 14.2109 282.172 14.0176 281.393 13.6309C280.619 13.2441 280.03 12.6787 279.626 11.9346C279.222 11.1846 279.02 10.2734 279.02 9.20117ZM281.551 9.33301C281.551 10.2588 281.771 10.9678 282.21 11.46C282.649 11.9521 283.191 12.1982 283.836 12.1982C284.48 12.1982 285.02 11.9521 285.453 11.46C285.893 10.9678 286.112 10.2529 286.112 9.31543C286.112 8.40137 285.893 7.69824 285.453 7.20605C285.02 6.71387 284.48 6.46777 283.836 6.46777C283.191 6.46777 282.649 6.71387 282.21 7.20605C281.771 7.69824 281.551 8.40723 281.551 9.33301ZM299.085 14H296.615V9.23633C296.615 8.22852 296.562 7.57812 296.457 7.28516C296.352 6.98633 296.179 6.75488 295.938 6.59082C295.704 6.42676 295.42 6.34473 295.086 6.34473C294.658 6.34473 294.274 6.46191 293.935 6.69629C293.595 6.93066 293.36 7.24121 293.231 7.62793C293.108 8.01465 293.047 8.72949 293.047 9.77246V14H290.577V4.66602H292.871V6.03711C293.686 4.98242 294.711 4.45508 295.947 4.45508C296.492 4.45508 296.99 4.55469 297.441 4.75391C297.893 4.94727 298.232 5.19629 298.461 5.50098C298.695 5.80566 298.856 6.15137 298.944 6.53809C299.038 6.9248 299.085 7.47852 299.085 8.19922V14ZM306.608 3.40039V1.11523H309.078V3.40039H306.608ZM306.608 14V4.66602H309.078V14H306.608ZM310.748 11.3369L313.227 10.959C313.332 11.4395 313.546 11.8057 313.868 12.0576C314.19 12.3037 314.642 12.4268 315.222 12.4268C315.86 12.4268 316.341 12.3096 316.663 12.0752C316.88 11.9111 316.988 11.6914 316.988 11.416C316.988 11.2285 316.93 11.0732 316.812 10.9502C316.689 10.833 316.414 10.7246 315.986 10.625C313.994 10.1855 312.731 9.78418 312.198 9.4209C311.46 8.91699 311.091 8.2168 311.091 7.32031C311.091 6.51172 311.41 5.83203 312.049 5.28125C312.688 4.73047 313.678 4.45508 315.02 4.45508C316.297 4.45508 317.246 4.66309 317.867 5.0791C318.488 5.49512 318.916 6.11035 319.15 6.9248L316.821 7.35547C316.722 6.99219 316.531 6.71387 316.25 6.52051C315.975 6.32715 315.579 6.23047 315.063 6.23047C314.413 6.23047 313.947 6.32129 313.666 6.50293C313.479 6.63184 313.385 6.79883 313.385 7.00391C313.385 7.17969 313.467 7.3291 313.631 7.45215C313.854 7.61621 314.621 7.84766 315.934 8.14648C317.252 8.44531 318.172 8.81152 318.693 9.24512C319.209 9.68457 319.467 10.2969 319.467 11.082C319.467 11.9375 319.109 12.6729 318.395 13.2881C317.68 13.9033 316.622 14.2109 315.222 14.2109C313.95 14.2109 312.942 13.9531 312.198 13.4375C311.46 12.9219 310.977 12.2217 310.748 11.3369ZM326.577 4.66602H328.88V6.03711C329.179 5.56836 329.583 5.1875 330.093 4.89453C330.603 4.60156 331.168 4.45508 331.789 4.45508C332.873 4.45508 333.793 4.87988 334.549 5.72949C335.305 6.5791 335.683 7.7627 335.683 9.28027C335.683 10.8389 335.302 12.0518 334.54 12.9189C333.778 13.7803 332.855 14.2109 331.771 14.2109C331.256 14.2109 330.787 14.1084 330.365 13.9033C329.949 13.6982 329.51 13.3467 329.047 12.8486V17.5508H326.577V4.66602ZM329.021 9.1748C329.021 10.2236 329.229 11 329.645 11.5039C330.061 12.002 330.567 12.251 331.165 12.251C331.739 12.251 332.217 12.0225 332.598 11.5654C332.979 11.1025 333.169 10.3467 333.169 9.29785C333.169 8.31934 332.973 7.59277 332.58 7.11816C332.188 6.64355 331.701 6.40625 331.121 6.40625C330.518 6.40625 330.017 6.64062 329.618 7.10938C329.22 7.57227 329.021 8.26074 329.021 9.1748ZM343.057 11.0293L345.518 11.4424C345.201 12.3447 344.7 13.0332 344.015 13.5078C343.335 13.9766 342.482 14.2109 341.457 14.2109C339.834 14.2109 338.633 13.6807 337.854 12.6201C337.238 11.7705 336.931 10.6982 336.931 9.40332C336.931 7.85645 337.335 6.64648 338.144 5.77344C338.952 4.89453 339.975 4.45508 341.211 4.45508C342.6 4.45508 343.695 4.91504 344.498 5.83496C345.301 6.74902 345.685 8.15234 345.649 10.0449H339.462C339.479 10.7773 339.679 11.3486 340.06 11.7588C340.44 12.1631 340.915 12.3652 341.483 12.3652C341.87 12.3652 342.195 12.2598 342.459 12.0488C342.723 11.8379 342.922 11.498 343.057 11.0293ZM343.197 8.5332C343.18 7.81836 342.995 7.27637 342.644 6.90723C342.292 6.53223 341.864 6.34473 341.36 6.34473C340.821 6.34473 340.376 6.54102 340.024 6.93359C339.673 7.32617 339.5 7.85938 339.506 8.5332H343.197ZM349.517 7.51367L347.275 7.10938C347.527 6.20703 347.961 5.53906 348.576 5.10547C349.191 4.67188 350.105 4.45508 351.318 4.45508C352.42 4.45508 353.24 4.58691 353.779 4.85059C354.318 5.1084 354.696 5.43945 354.913 5.84375C355.136 6.24219 355.247 6.97754 355.247 8.0498L355.221 10.9326C355.221 11.7529 355.259 12.3594 355.335 12.752C355.417 13.1387 355.566 13.5547 355.783 14H353.34C353.275 13.8359 353.196 13.5928 353.103 13.2705C353.062 13.124 353.032 13.0273 353.015 12.9805C352.593 13.3906 352.142 13.6982 351.661 13.9033C351.181 14.1084 350.668 14.2109 350.123 14.2109C349.162 14.2109 348.403 13.9502 347.847 13.4287C347.296 12.9072 347.021 12.248 347.021 11.4512C347.021 10.9238 347.146 10.4551 347.398 10.0449C347.65 9.62891 348.002 9.3125 348.453 9.0957C348.91 8.87305 349.566 8.67969 350.422 8.51562C351.576 8.29883 352.376 8.09668 352.821 7.90918V7.66309C352.821 7.18848 352.704 6.85156 352.47 6.65234C352.235 6.44727 351.793 6.34473 351.143 6.34473C350.703 6.34473 350.36 6.43262 350.114 6.6084C349.868 6.77832 349.669 7.08008 349.517 7.51367ZM352.821 9.51758C352.505 9.62305 352.004 9.74902 351.318 9.89551C350.633 10.042 350.185 10.1855 349.974 10.3262C349.651 10.5547 349.49 10.8447 349.49 11.1963C349.49 11.542 349.619 11.8408 349.877 12.0928C350.135 12.3447 350.463 12.4707 350.861 12.4707C351.307 12.4707 351.731 12.3242 352.136 12.0312C352.435 11.8086 352.631 11.5361 352.725 11.2139C352.789 11.0029 352.821 10.6016 352.821 10.0098V9.51758ZM365.829 7.42578L363.395 7.86523C363.312 7.37891 363.125 7.0127 362.832 6.7666C362.545 6.52051 362.17 6.39746 361.707 6.39746C361.092 6.39746 360.6 6.61133 360.23 7.03906C359.867 7.46094 359.686 8.16992 359.686 9.16602C359.686 10.2734 359.87 11.0557 360.239 11.5127C360.614 11.9697 361.115 12.1982 361.742 12.1982C362.211 12.1982 362.595 12.0664 362.894 11.8027C363.192 11.5332 363.403 11.0732 363.526 10.4229L365.952 10.8359C365.7 11.9492 365.217 12.79 364.502 13.3584C363.787 13.9268 362.829 14.2109 361.628 14.2109C360.263 14.2109 359.173 13.7803 358.358 12.9189C357.55 12.0576 357.146 10.8652 357.146 9.3418C357.146 7.80078 357.553 6.60254 358.367 5.74707C359.182 4.88574 360.283 4.45508 361.672 4.45508C362.809 4.45508 363.711 4.70117 364.379 5.19336C365.053 5.67969 365.536 6.42383 365.829 7.42578ZM373.115 11.0293L375.576 11.4424C375.26 12.3447 374.759 13.0332 374.073 13.5078C373.394 13.9766 372.541 14.2109 371.516 14.2109C369.893 14.2109 368.691 13.6807 367.912 12.6201C367.297 11.7705 366.989 10.6982 366.989 9.40332C366.989 7.85645 367.394 6.64648 368.202 5.77344C369.011 4.89453 370.033 4.45508 371.27 4.45508C372.658 4.45508 373.754 4.91504 374.557 5.83496C375.359 6.74902 375.743 8.15234 375.708 10.0449H369.521C369.538 10.7773 369.737 11.3486 370.118 11.7588C370.499 12.1631 370.974 12.3652 371.542 12.3652C371.929 12.3652 372.254 12.2598 372.518 12.0488C372.781 11.8379 372.98 11.498 373.115 11.0293ZM373.256 8.5332C373.238 7.81836 373.054 7.27637 372.702 6.90723C372.351 6.53223 371.923 6.34473 371.419 6.34473C370.88 6.34473 370.435 6.54102 370.083 6.93359C369.731 7.32617 369.559 7.85938 369.564 8.5332H373.256ZM382.168 9.20117C382.168 8.38086 382.37 7.58691 382.774 6.81934C383.179 6.05176 383.75 5.46582 384.488 5.06152C385.232 4.65723 386.062 4.45508 386.976 4.45508C388.388 4.45508 389.545 4.91504 390.447 5.83496C391.35 6.74902 391.801 7.90625 391.801 9.30664C391.801 10.7188 391.344 11.8906 390.43 12.8223C389.521 13.748 388.376 14.2109 386.993 14.2109C386.138 14.2109 385.32 14.0176 384.541 13.6309C383.768 13.2441 383.179 12.6787 382.774 11.9346C382.37 11.1846 382.168 10.2734 382.168 9.20117ZM384.699 9.33301C384.699 10.2588 384.919 10.9678 385.358 11.46C385.798 11.9521 386.34 12.1982 386.984 12.1982C387.629 12.1982 388.168 11.9521 388.602 11.46C389.041 10.9678 389.261 10.2529 389.261 9.31543C389.261 8.40137 389.041 7.69824 388.602 7.20605C388.168 6.71387 387.629 6.46777 386.984 6.46777C386.34 6.46777 385.798 6.71387 385.358 7.20605C384.919 7.69824 384.699 8.40723 384.699 9.33301ZM392.662 4.66602H394.033V3.96289C394.033 3.17773 394.115 2.5918 394.279 2.20508C394.449 1.81836 394.757 1.50488 395.202 1.26465C395.653 1.01855 396.222 0.895508 396.907 0.895508C397.61 0.895508 398.299 1.00098 398.973 1.21191L398.639 2.93457C398.246 2.84082 397.868 2.79395 397.505 2.79395C397.147 2.79395 396.89 2.87891 396.731 3.04883C396.579 3.21289 396.503 3.53223 396.503 4.00684V4.66602H398.349V6.6084H396.503V14H394.033V6.6084H392.662V4.66602ZM404.562 4.66602H406.839V5.94043C407.653 4.9502 408.623 4.45508 409.748 4.45508C410.346 4.45508 410.864 4.57812 411.304 4.82422C411.743 5.07031 412.104 5.44238 412.385 5.94043C412.795 5.44238 413.237 5.07031 413.712 4.82422C414.187 4.57812 414.693 4.45508 415.232 4.45508C415.918 4.45508 416.498 4.5957 416.973 4.87695C417.447 5.15234 417.802 5.55957 418.036 6.09863C418.206 6.49707 418.291 7.1416 418.291 8.03223V14H415.821V8.66504C415.821 7.73926 415.736 7.1416 415.566 6.87207C415.338 6.52051 414.986 6.34473 414.512 6.34473C414.166 6.34473 413.841 6.4502 413.536 6.66113C413.231 6.87207 413.012 7.18262 412.877 7.59277C412.742 7.99707 412.675 8.63867 412.675 9.51758V14H410.205V8.88477C410.205 7.97656 410.161 7.39062 410.073 7.12695C409.985 6.86328 409.848 6.66699 409.66 6.53809C409.479 6.40918 409.229 6.34473 408.913 6.34473C408.532 6.34473 408.189 6.44727 407.885 6.65234C407.58 6.85742 407.36 7.15332 407.226 7.54004C407.097 7.92676 407.032 8.56836 407.032 9.46484V14H404.562V4.66602ZM420.761 3.40039V1.11523H423.23V3.40039H420.761ZM420.761 14V4.66602H423.23V14H420.761ZM434.261 14H431.791V9.23633C431.791 8.22852 431.738 7.57812 431.633 7.28516C431.527 6.98633 431.354 6.75488 431.114 6.59082C430.88 6.42676 430.596 6.34473 430.262 6.34473C429.834 6.34473 429.45 6.46191 429.11 6.69629C428.771 6.93066 428.536 7.24121 428.407 7.62793C428.284 8.01465 428.223 8.72949 428.223 9.77246V14H425.753V4.66602H428.047V6.03711C428.861 4.98242 429.887 4.45508 431.123 4.45508C431.668 4.45508 432.166 4.55469 432.617 4.75391C433.068 4.94727 433.408 5.19629 433.637 5.50098C433.871 5.80566 434.032 6.15137 434.12 6.53809C434.214 6.9248 434.261 7.47852 434.261 8.19922V14ZM445.335 14H443.041V12.6289C442.66 13.1621 442.209 13.5605 441.688 13.8242C441.172 14.082 440.65 14.2109 440.123 14.2109C439.051 14.2109 438.131 13.7803 437.363 12.9189C436.602 12.0518 436.221 10.8447 436.221 9.29785C436.221 7.71582 436.593 6.51465 437.337 5.69434C438.081 4.86816 439.021 4.45508 440.158 4.45508C441.201 4.45508 442.104 4.88867 442.865 5.75586V1.11523H445.335V14ZM438.743 9.13086C438.743 10.127 438.881 10.8477 439.156 11.293C439.555 11.9375 440.111 12.2598 440.826 12.2598C441.395 12.2598 441.878 12.0195 442.276 11.5391C442.675 11.0527 442.874 10.3291 442.874 9.36816C442.874 8.2959 442.681 7.52539 442.294 7.05664C441.907 6.58203 441.412 6.34473 440.809 6.34473C440.223 6.34473 439.73 6.5791 439.332 7.04785C438.939 7.51074 438.743 8.20508 438.743 9.13086ZM447.778 14V11.5303H450.248V14H447.778ZM456.77 1.11523H459.239V2.89062C459.239 3.60547 459.175 4.16797 459.046 4.57812C458.923 4.98828 458.688 5.36035 458.343 5.69434C458.003 6.02246 457.572 6.28027 457.051 6.46777L456.567 5.43945C457.06 5.27539 457.411 5.04688 457.622 4.75391C457.839 4.46094 457.95 4.07129 457.956 3.58496H456.77V1.11523ZM452.621 1.11523H455.091V2.89062C455.091 3.60547 455.029 4.16797 454.906 4.57812C454.783 4.98828 454.549 5.36035 454.203 5.69434C453.863 6.02246 453.43 6.28027 452.902 6.46777L452.419 5.43945C452.917 5.27539 453.271 5.04688 453.482 4.75391C453.693 4.46094 453.805 4.07129 453.816 3.58496H452.621V1.11523Z" fill="#666666"/>
</svg>
