<svg width="28" height="23" viewBox="0 0 28 23" fill="none" xmlns="http://www.w3.org/2000/svg">
<path d="M10.5195 22.3438H0.640625V15.2773C0.640625 12.418 0.886719 10.168 1.37891 8.52734C1.89453 6.86328 2.83203 5.375 4.19141 4.0625C5.55078 2.75 7.28516 1.71875 9.39453 0.96875L11.3281 5.04688C9.35938 5.70313 7.94141 6.61719 7.07422 7.78906C6.23047 8.96094 5.78516 10.5195 5.73828 12.4648H10.5195V22.3438ZM27.0078 22.3438H17.1289V15.2773C17.1289 12.3945 17.375 10.1328 17.8672 8.49219C18.3828 6.85156 19.3203 5.375 20.6797 4.0625C22.0625 2.75 23.7969 1.71875 25.8828 0.96875L27.8164 5.04688C25.8477 5.70313 24.4297 6.61719 23.5625 7.78906C22.7188 8.96094 22.2734 10.5195 22.2266 12.4648H27.0078V22.3438Z" fill="#C4C4C4"/>
</svg>
